<?xml version="1.0" encoding="utf-8"?>
<!-- Generator: Adobe Illustrator 25.2.2, SVG Export Plug-In . SVG Version: 6.00 Build 0)  -->
<svg version="1.1" id="Layer_1" xmlns="http://www.w3.org/2000/svg" xmlns:xlink="http://www.w3.org/1999/xlink" x="0px" y="0px"
	 viewBox="0 0 220 220" style="enable-background:new 0 0 220 220;" xml:space="preserve">
<style type="text/css">
	.st0{fill:url(#SVGID_1_);}
	.st1{fill:url(#SVGID_2_);}
	.st2{fill:url(#SVGID_3_);}
	.st3{fill:url(#SVGID_4_);}
	.st4{fill:url(#SVGID_5_);}
	.st5{fill:url(#SVGID_6_);}
</style>
<g id="Out_line">
	
		<linearGradient id="SVGID_1_" gradientUnits="userSpaceOnUse" x1="62.0706" y1="166.4918" x2="157.9032" y2="166.4918" gradientTransform="matrix(1 0 0 -1 0 221.8425)">
		<stop  offset="0" style="stop-color:#DD3095"/>
		<stop  offset="1" style="stop-color:#7A17D9"/>
	</linearGradient>
	<path class="st0" d="M96.75,104.83l5.05-5.05L82.28,80.24c-17.4-17.4-17.4-45.61,0-63.02l0,0c5.61-5.61,14.7-5.61,20.31,0
		c1.84,1.84,3.14,4.15,3.77,6.67l0.17,0.71c0.47,1.91,2.42,3.08,4.33,2.59c1.28-0.32,2.28-1.31,2.59-2.59l0.17-0.71
		c1.92-7.69,9.72-12.37,17.41-10.45c2.52,0.63,4.83,1.94,6.67,3.77c17.4,17.4,17.4,45.61,0,63.02l0,0l-12.39,12.39l5.05,5.05
		l12.39-12.39c20.19-20.19,20.19-52.93,0-73.11l0,0c-8.4-8.4-22.03-8.4-30.43,0c-0.86,0.86-1.66,1.8-2.35,2.79
		c-6.85-9.7-20.28-12-29.99-5.15c-1,0.71-1.94,1.5-2.79,2.35c-20.19,20.19-20.19,52.93,0,73.11l0,0L96.75,104.83z"/>
	
		<linearGradient id="SVGID_2_" gradientUnits="userSpaceOnUse" x1="1.6107" y1="131.5949" x2="53.2252" y2="131.5949" gradientTransform="matrix(1 0 0 -1 0 221.8425)">
		<stop  offset="0" style="stop-color:#DD3095"/>
		<stop  offset="1" style="stop-color:#7A17D9"/>
	</linearGradient>
	<path class="st1" d="M29.5,129.11c-8.27-4.26-14.98-11.03-19.18-19.32c-3.6-7.06-0.79-15.72,6.27-19.31
		c2.31-1.18,4.92-1.72,7.51-1.53l0.72,0.05c1.97,0.13,3.68-1.35,3.81-3.31c0.09-1.31-0.55-2.57-1.67-3.28l-0.61-0.39
		c-6.72-4.21-8.77-13.06-4.55-19.8c1.38-2.2,3.34-3.99,5.65-5.17c7.71-3.94,16.4-5.54,25.01-4.6l0.77-7.1
		c-9.98-1.08-20.08,0.77-29.03,5.34c-10.58,5.39-14.79,18.35-9.4,28.94c0.56,1.08,1.21,2.12,1.92,3.1
		C5.4,86.24-0.94,98.29,2.59,109.64c0.37,1.17,0.83,2.3,1.38,3.38c4.88,9.63,12.66,17.47,22.26,22.43L29.5,129.11z"/>
	
		<linearGradient id="SVGID_3_" gradientUnits="userSpaceOnUse" x1="23.5547" y1="57.4847" x2="120.8496" y2="57.4847" gradientTransform="matrix(1 0 0 -1 0 221.8425)">
		<stop  offset="0" style="stop-color:#DD3095"/>
		<stop  offset="1" style="stop-color:#7A17D9"/>
	</linearGradient>
	<path class="st2" d="M120.21,154.71l-2.17-13.69l-7.05,1.12l2.17,13.69c3.82,24.3-12.75,47.11-37.04,50.98
		c-7.83,1.24-15.19-4.1-16.42-11.93c-0.4-2.57-0.11-5.2,0.86-7.62l0.27-0.67c0.74-1.83-0.15-3.91-1.97-4.65
		c-1.22-0.5-2.62-0.27-3.63,0.57l-0.56,0.46c-6.08,5.09-15.13,4.3-20.24-1.78c-1.67-2-2.78-4.41-3.18-6.98
		c-3.85-24.3,12.74-47.13,37.04-50.98l0,0l10.12-1.61l-1.12-7.05l-10.12,1.61c-28.2,4.47-47.45,30.95-42.98,59.15l0,0
		c1.86,11.74,12.88,19.74,24.62,17.87c1.21-0.19,2.39-0.49,3.54-0.88c-0.16,11.88,9.36,21.65,21.25,21.79c0.07,0,0.15,0,0.22,0
		c1.14,0,2.28-0.09,3.41-0.27C105.42,209.37,124.65,182.91,120.21,154.71z"/>
	
		<linearGradient id="SVGID_4_" gradientUnits="userSpaceOnUse" x1="114.6257" y1="57.2108" x2="196.4226" y2="57.2108" gradientTransform="matrix(1 0 0 -1 0 221.8425)">
		<stop  offset="0" style="stop-color:#DD3095"/>
		<stop  offset="1" style="stop-color:#7A17D9"/>
	</linearGradient>
	<path class="st3" d="M152.81,116.18l-6.54-1.03l-1.12,7.05l6.54,1.03c24.3,3.85,40.88,26.68,37.04,50.98l0,0
		c-1.24,7.83-8.6,13.17-16.42,11.93c-2.57-0.4-4.98-1.51-6.98-3.18l-0.56-0.46c-1.51-1.27-3.76-1.07-5.03,0.44
		c-0.85,1.01-1.07,2.41-0.57,3.63l0.27,0.67c2.97,7.35-0.6,15.72-7.95,18.69c-2.41,0.97-5.04,1.27-7.62,0.86
		c-9.16-1.42-17.63-5.69-24.23-12.19l-5,5.1c7.66,7.55,17.5,12.49,28.11,14.15c1.13,0.18,2.26,0.27,3.41,0.27
		c11.88-0.04,21.5-9.69,21.47-21.59c0-0.07,0-0.15,0-0.22c11.25,3.82,23.46-2.2,27.29-13.45c0.39-1.16,0.68-2.34,0.88-3.54
		C200.26,147.13,181.02,120.65,152.81,116.18L152.81,116.18z"/>
	
		<linearGradient id="SVGID_5_" gradientUnits="userSpaceOnUse" x1="162.9133" y1="131.6004" x2="218.3893" y2="131.6004" gradientTransform="matrix(1 0 0 -1 0 221.8425)">
		<stop  offset="0" style="stop-color:#DD3095"/>
		<stop  offset="1" style="stop-color:#7A17D9"/>
	</linearGradient>
	<path class="st4" d="M217.33,96.63c-2.16-6.65-7.4-11.83-14.09-13.9c7.11-9.52,5.15-23-4.36-30.11c-0.97-0.73-2.02-1.38-3.1-1.92
		c-10.12-5.2-21.68-6.88-32.86-4.77l1.3,7.03c9.63-1.81,19.59-0.37,28.32,4.12c7.06,3.6,9.87,12.25,6.27,19.31
		c-1.18,2.31-2.97,4.27-5.17,5.65l-0.61,0.39c-1.67,1.05-2.18,3.25-1.13,4.92c0.69,1.12,1.96,1.77,3.28,1.67l0.72-0.05
		c7.91-0.55,14.77,5.42,15.32,13.33c0.18,2.59-0.35,5.2-1.53,7.51c-4.2,8.29-10.91,15.06-19.18,19.32l3.29,6.34
		c9.59-4.96,17.37-12.8,22.26-22.43C218.64,107.95,219.1,102.04,217.33,96.63z"/>
	
		<linearGradient id="SVGID_6_" gradientUnits="userSpaceOnUse" x1="52.858" y1="115.9739" x2="170.724" y2="115.9739" gradientTransform="matrix(1 0 0 -1 0 221.8425)">
		<stop  offset="0" style="stop-color:#DD3095"/>
		<stop  offset="1" style="stop-color:#7A17D9"/>
	</linearGradient>
	<path class="st5" d="M63.56,109.45c2.09,0,4.14-0.61,5.88-1.77c11.07,5.76,23.34,8.81,35.81,8.9l-0.56,1.96
		c-2.39,8.24-7.63,15.35-14.82,20.05c-3.63-4.68-10.35-5.52-15.02-1.89c-4.68,3.63-5.52,10.35-1.89,15.02s10.35,5.52,15.02,1.89
		c2.48-1.94,4.01-4.86,4.13-8.01c8.74-5.19,15.38-13.28,18.74-22.88l2.24,4.48c4.4,8.86,12.61,15.22,22.29,17.25
		c1.58,5.7,7.5,9.03,13.2,7.45c5.7-1.58,9.03-7.5,7.45-13.2c-1.58-5.7-7.5-9.03-13.2-7.45c-3.09,0.86-5.63,3.06-6.93,5.99
		c-7.15-1.79-13.15-6.62-16.42-13.23l-3.71-7.43h6.16c12.11,0.04,23.86-4.16,33.21-11.88c5.28,2.68,11.74,0.57,14.42-4.7
		c2.68-5.28,0.57-11.74-4.7-14.42c-5.27-2.68-11.74-0.57-14.42,4.7c-1.46,2.89-1.55,6.27-0.23,9.22c-8.01,6.45-18,9.96-28.27,9.94
		h-6.78l2.63-7.03c3.75-9.91,2.93-20.98-2.23-30.23c3.09-5.05,1.51-11.65-3.53-14.74c-5.05-3.09-11.65-1.51-14.74,3.53
		c-3.09,5.05-1.51,11.65,3.53,14.74c2.73,1.67,6.05,2.03,9.07,1.01c3.63,7.22,4.08,15.62,1.22,23.18l-3.58,9.53h-1.7
		c-11.12,0-22.07-2.59-32.01-7.56c1.74-5.66-1.44-11.65-7.09-13.39s-11.65,1.44-13.39,7.09c-1.74,5.66,1.44,11.65,7.09,13.39
		C61.43,109.29,62.5,109.45,63.56,109.45z M81.42,148.74c-1.97,0-3.58-1.59-3.58-3.57c0-1.97,1.59-3.58,3.57-3.58
		c0.99,0,1.92,0.4,2.61,1.12l0.97,2.45C84.99,147.13,83.4,148.72,81.42,148.74z M145.71,138.02c1.97,0,3.57,1.59,3.57,3.57
		s-1.59,3.57-3.57,3.57c-1.97,0-3.57-1.59-3.57-3.57S143.74,138.02,145.71,138.02z M159.99,91.59c1.97,0,3.57,1.59,3.57,3.57
		c0,1.97-1.59,3.57-3.57,3.57s-3.57-1.59-3.57-3.57C156.42,93.19,158.02,91.6,159.99,91.59z M102.85,66.59
		c0-1.97,1.59-3.57,3.57-3.57s3.58,1.59,3.58,3.57s-1.59,3.57-3.57,3.57C104.45,70.16,102.85,68.56,102.85,66.59z M63.56,95.16
		c1.97,0,3.57,1.59,3.57,3.57c0,1.97-1.59,3.57-3.57,3.57s-3.57-1.59-3.57-3.57S61.6,95.16,63.56,95.16z"/>
</g>
</svg>
