<?xml version="1.0" encoding="utf-8"?>
<!-- Generator: Adobe Illustrator 25.2.2, SVG Export Plug-In . SVG Version: 6.00 Build 0)  -->
<svg version="1.1" id="Layer_1" xmlns="http://www.w3.org/2000/svg" xmlns:xlink="http://www.w3.org/1999/xlink" x="0px" y="0px"
	 viewBox="0 0 180 180" style="enable-background:new 0 0 180 180;" xml:space="preserve">
<style type="text/css">
	.st0{fill:url(#SVGID_1_);}
	.st1{fill:url(#SVGID_2_);}
	.st2{fill:url(#SVGID_3_);}
	.st3{fill:url(#SVGID_4_);}
	.st4{fill:url(#SVGID_5_);}
	.st5{fill:url(#SVGID_6_);}
</style>
<g id="Out_line">
	<linearGradient id="SVGID_1_" gradientUnits="userSpaceOnUse" x1="50.6392" y1="45.1111" x2="129.3555" y2="45.1111">
		<stop  offset="0" style="stop-color:#DD3095"/>
		<stop  offset="1" style="stop-color:#7A17D9"/>
	</linearGradient>
	<path class="st0" d="M79.12,85.75l4.15-4.15L67.23,65.55c-14.29-14.29-14.29-37.46,0-51.76c0,0,0,0,0,0
		c4.61-4.61,12.07-4.61,16.68,0c1.51,1.51,2.58,3.41,3.1,5.48l0.14,0.58c0.39,1.57,1.99,2.53,3.56,2.13
		c1.05-0.26,1.87-1.08,2.13-2.13l0.14-0.58c1.58-6.32,7.98-10.16,14.3-8.58c2.07,0.52,3.97,1.59,5.48,3.1
		c14.29,14.29,14.29,37.46,0,51.76c0,0,0,0,0,0l-10.18,10.18l4.15,4.15l10.18-10.18c16.58-16.58,16.58-43.47,0-60.05c0,0,0,0,0,0
		c-6.9-6.9-18.09-6.9-24.99,0c-0.71,0.71-1.36,1.48-1.93,2.29c-5.63-7.97-16.66-9.86-24.63-4.23c-0.82,0.58-1.59,1.23-2.29,1.93
		c-16.58,16.58-16.58,43.47,0,60.05c0,0,0,0,0,0L79.12,85.75z"/>
	<linearGradient id="SVGID_2_" gradientUnits="userSpaceOnUse" x1="0.9778" y1="73.7692" x2="43.3823" y2="73.7692">
		<stop  offset="0" style="stop-color:#DD3095"/>
		<stop  offset="1" style="stop-color:#7A17D9"/>
	</linearGradient>
	<path class="st1" d="M23.88,105.69c-6.79-3.5-12.3-9.06-15.75-15.87c-2.96-5.8-0.65-12.91,5.15-15.86c1.9-0.97,4.04-1.41,6.17-1.26
		l0.59,0.04c1.62,0.11,3.02-1.11,3.13-2.72c0.07-1.08-0.45-2.11-1.37-2.69l-0.5-0.32c-5.52-3.46-7.2-10.73-3.74-16.26
		c1.13-1.81,2.74-3.28,4.64-4.25c6.33-3.24,13.47-4.55,20.54-3.78l0.63-5.83c-8.2-0.89-16.49,0.63-23.84,4.39
		c-8.69,4.43-12.15,15.07-7.72,23.77c0.46,0.89,0.99,1.74,1.58,2.55C4.09,70.48-1.12,80.38,1.78,89.7c0.3,0.96,0.68,1.89,1.13,2.78
		c4.01,7.91,10.4,14.35,18.28,18.42L23.88,105.69z"/>
	<linearGradient id="SVGID_3_" gradientUnits="userSpaceOnUse" x1="19.0057" y1="134.6419" x2="98.9135" y2="134.6419">
		<stop  offset="0" style="stop-color:#DD3095"/>
		<stop  offset="1" style="stop-color:#7A17D9"/>
	</linearGradient>
	<path class="st2" d="M98.39,126.72l-1.78-11.24l-5.79,0.92l1.78,11.24c3.14,19.96-10.47,38.69-30.42,41.87
		c-6.43,1.02-12.48-3.37-13.49-9.8c-0.33-2.11-0.09-4.27,0.71-6.26l0.22-0.55c0.61-1.5-0.12-3.21-1.62-3.82
		c-1-0.41-2.15-0.22-2.98,0.47l-0.46,0.38c-4.99,4.18-12.43,3.53-16.62-1.46c-1.37-1.64-2.28-3.62-2.61-5.73
		c-3.16-19.96,10.46-38.71,30.42-41.87c0,0,0,0,0,0l8.31-1.32l-0.92-5.79l-8.31,1.32c-23.16,3.67-38.97,25.42-35.3,48.58
		c0,0,0,0,0,0c1.53,9.64,10.58,16.21,20.22,14.68c0.99-0.16,1.96-0.4,2.91-0.72c-0.13,9.76,7.69,17.78,17.45,17.9
		c0.06,0,0.12,0,0.18,0c0.94,0,1.87-0.07,2.8-0.22C86.24,171.61,102.03,149.88,98.39,126.72z"/>
	<linearGradient id="SVGID_4_" gradientUnits="userSpaceOnUse" x1="93.8082" y1="134.8742" x2="160.989" y2="134.8742">
		<stop  offset="0" style="stop-color:#DD3095"/>
		<stop  offset="1" style="stop-color:#7A17D9"/>
	</linearGradient>
	<path class="st3" d="M125.16,95.07l-5.37-0.85l-0.92,5.79l5.37,0.85c19.96,3.16,33.58,21.91,30.42,41.87c0,0,0,0,0,0
		c-1.02,6.43-7.06,10.82-13.49,9.8c-2.11-0.33-4.09-1.24-5.73-2.61l-0.46-0.38c-1.24-1.04-3.09-0.88-4.13,0.36
		c-0.7,0.83-0.88,1.98-0.47,2.98l0.22,0.55c2.44,6.04-0.49,12.91-6.53,15.35c-1.98,0.8-4.14,1.04-6.26,0.71
		c-7.52-1.17-14.48-4.67-19.9-10.01l-4.11,4.19c6.29,6.2,14.37,10.26,23.09,11.62c0.93,0.15,1.86,0.22,2.8,0.22
		c9.76-0.03,17.66-7.96,17.63-17.73c0-0.06,0-0.12,0-0.18c9.24,3.14,19.27-1.81,22.41-11.05c0.32-0.95,0.56-1.92,0.72-2.91
		C164.13,120.49,148.33,98.74,125.16,95.07C125.16,95.07,125.16,95.07,125.16,95.07z"/>
	<linearGradient id="SVGID_5_" gradientUnits="userSpaceOnUse" x1="133.4618" y1="73.7637" x2="179.0222" y2="73.7637">
		<stop  offset="0" style="stop-color:#DD3095"/>
		<stop  offset="1" style="stop-color:#7A17D9"/>
	</linearGradient>
	<path class="st4" d="M178.15,79.01c-1.77-5.46-6.08-9.72-11.57-11.42c5.84-7.82,4.23-18.89-3.58-24.73
		c-0.8-0.6-1.66-1.13-2.55-1.58c-8.31-4.27-17.81-5.65-26.99-3.92l1.07,5.77c7.91-1.49,16.09-0.3,23.26,3.38
		c5.8,2.96,8.11,10.06,5.15,15.86c-0.97,1.9-2.44,3.51-4.25,4.64l-0.5,0.32c-1.37,0.86-1.79,2.67-0.93,4.04
		c0.57,0.92,1.61,1.45,2.69,1.37l0.59-0.04c6.5-0.45,12.13,4.45,12.58,10.95c0.15,2.13-0.29,4.27-1.26,6.17
		c-3.45,6.81-8.96,12.37-15.75,15.87l2.7,5.21c7.88-4.07,14.27-10.51,18.28-18.42C179.23,88.31,179.61,83.46,178.15,79.01z"/>
	<linearGradient id="SVGID_6_" gradientUnits="userSpaceOnUse" x1="43.0627" y1="86.6004" x2="139.8789" y2="86.6004">
		<stop  offset="0" style="stop-color:#DD3095"/>
		<stop  offset="1" style="stop-color:#7A17D9"/>
	</linearGradient>
	<path class="st5" d="M51.86,89.54c1.72,0,3.4-0.5,4.83-1.45c9.09,4.73,19.17,7.24,29.41,7.31l-0.46,1.61
		c-1.96,6.77-6.27,12.61-12.17,16.47c-2.98-3.84-8.5-4.53-12.34-1.55c-3.84,2.98-4.53,8.5-1.55,12.34c2.98,3.84,8.5,4.53,12.34,1.55
		c2.04-1.59,3.29-3.99,3.39-6.58c7.18-4.26,12.63-10.91,15.39-18.79l1.84,3.68c3.61,7.28,10.36,12.5,18.31,14.17
		c1.3,4.68,6.16,7.42,10.84,6.12c4.68-1.3,7.42-6.16,6.12-10.84c-1.3-4.68-6.16-7.42-10.84-6.12c-2.54,0.71-4.62,2.51-5.69,4.92
		c-5.87-1.47-10.8-5.44-13.49-10.87l-3.05-6.1h5.06c9.95,0.03,19.6-3.42,27.28-9.76c4.34,2.2,9.64,0.47,11.84-3.86
		c2.2-4.34,0.47-9.64-3.86-11.84s-9.64-0.47-11.84,3.86c-1.2,2.37-1.27,5.15-0.19,7.57c-6.58,5.3-14.78,8.18-23.22,8.16h-5.57
		l2.16-5.77c3.08-8.14,2.41-17.23-1.83-24.83c2.54-4.15,1.24-9.57-2.9-12.11c-4.15-2.54-9.57-1.24-12.11,2.9
		c-2.54,4.15-1.24,9.57,2.9,12.11c2.24,1.37,4.97,1.67,7.45,0.83c2.98,5.93,3.35,12.83,1,19.04l-2.94,7.83h-1.4
		c-9.13,0-18.13-2.13-26.29-6.21c1.43-4.65-1.18-9.57-5.82-11s-9.57,1.18-11,5.82c-1.43,4.65,1.18,9.57,5.82,11
		C50.11,89.41,50.99,89.54,51.86,89.54z M66.53,121.81c-1.62,0-2.94-1.31-2.94-2.93c0-1.62,1.31-2.94,2.93-2.94
		c0.81,0,1.58,0.33,2.14,0.92l0.8,2.01C69.46,120.49,68.15,121.8,66.53,121.81z M119.33,113.01c1.62,0,2.93,1.31,2.93,2.93
		c0,1.62-1.31,2.93-2.93,2.93c-1.62,0-2.93-1.31-2.93-2.93C116.4,114.32,117.71,113.01,119.33,113.01z M131.06,74.87
		c1.62,0,2.93,1.31,2.93,2.93c0,1.62-1.31,2.93-2.93,2.93s-2.93-1.31-2.93-2.93C128.13,76.19,129.44,74.88,131.06,74.87z
		 M84.13,54.34c0-1.62,1.31-2.93,2.93-2.93S90,52.72,90,54.34s-1.31,2.93-2.93,2.93C85.44,57.27,84.13,55.96,84.13,54.34z
		 M51.86,77.81c1.62,0,2.93,1.31,2.93,2.93c0,1.62-1.31,2.93-2.93,2.93s-2.93-1.31-2.93-2.93C48.93,79.12,50.25,77.81,51.86,77.81z"
		/>
</g>
</svg>
