<?xml version="1.0" encoding="utf-8"?>
<!-- Generator: Adobe Illustrator 25.2.2, SVG Export Plug-In . SVG Version: 6.00 Build 0)  -->
<svg version="1.1" id="Layer_1" xmlns="http://www.w3.org/2000/svg" xmlns:xlink="http://www.w3.org/1999/xlink" x="0px" y="0px"
	 viewBox="0 0 160 160" style="enable-background:new 0 0 160 160;" xml:space="preserve">
<style type="text/css">
	.st0{fill:url(#SVGID_1_);}
	.st1{fill:url(#SVGID_2_);}
	.st2{fill:url(#SVGID_3_);}
	.st3{fill:url(#SVGID_4_);}
	.st4{fill:url(#SVGID_5_);}
	.st5{fill:url(#SVGID_6_);}
</style>
<g id="Out_line">
	
		<linearGradient id="SVGID_1_" gradientUnits="userSpaceOnUse" x1="45.0151" y1="121.7325" x2="114.9658" y2="121.7325" gradientTransform="matrix(1 0 0 -1 0 161.8425)">
		<stop  offset="0" style="stop-color:#DD3095"/>
		<stop  offset="1" style="stop-color:#7A17D9"/>
	</linearGradient>
	<path class="st0" d="M70.33,76.23l3.69-3.69L59.76,58.28c-12.7-12.7-12.7-33.29,0-46l0,0c4.1-4.1,10.73-4.1,14.82,0
		c1.34,1.34,2.29,3.03,2.76,4.87l0.12,0.52c0.35,1.4,1.77,2.25,3.16,1.89c0.93-0.23,1.66-0.96,1.89-1.89l0.12-0.52
		c1.4-5.62,7.09-9.03,12.71-7.63c1.84,0.46,3.53,1.41,4.87,2.76c12.7,12.7,12.7,33.29,0,46l0,0l-9.05,9.05l3.69,3.69l9.05-9.05
		c14.73-14.73,14.73-38.63,0-53.37l0,0c-6.13-6.13-16.08-6.13-22.21,0c-0.63,0.63-1.21,1.32-1.72,2.04
		c-5-7.08-14.81-8.76-21.89-3.76c-0.73,0.52-1.41,1.09-2.04,1.72c-14.73,14.73-14.73,38.63,0,53.37l0,0L70.33,76.23z"/>
	
		<linearGradient id="SVGID_2_" gradientUnits="userSpaceOnUse" x1="0.8839" y1="96.2603" x2="38.5586" y2="96.2603" gradientTransform="matrix(1 0 0 -1 0 161.8425)">
		<stop  offset="0" style="stop-color:#DD3095"/>
		<stop  offset="1" style="stop-color:#7A17D9"/>
	</linearGradient>
	<path class="st1" d="M21.24,93.95c-6.03-3.11-10.93-8.05-14-14.1c-2.63-5.15-0.58-11.47,4.58-14.1c1.69-0.86,3.59-1.25,5.48-1.12
		l0.52,0.04c1.44,0.1,2.68-0.99,2.78-2.42c0.06-0.96-0.4-1.88-1.22-2.39l-0.44-0.28c-4.91-3.07-6.4-9.54-3.32-14.45
		c1-1.61,2.44-2.91,4.12-3.78c5.63-2.88,11.97-4.04,18.25-3.36l0.56-5.18c-7.29-0.79-14.65,0.56-21.19,3.9
		c-7.72,3.94-10.8,13.39-6.86,21.12c0.41,0.79,0.88,1.55,1.4,2.27C3.65,62.66-0.98,71.46,1.6,79.74c0.27,0.85,0.6,1.68,1,2.47
		c3.56,7.03,9.24,12.75,16.25,16.37L21.24,93.95z"/>
	
		<linearGradient id="SVGID_3_" gradientUnits="userSpaceOnUse" x1="16.9014" y1="42.1654" x2="87.9194" y2="42.1654" gradientTransform="matrix(1 0 0 -1 0 161.8425)">
		<stop  offset="0" style="stop-color:#DD3095"/>
		<stop  offset="1" style="stop-color:#7A17D9"/>
	</linearGradient>
	<path class="st2" d="M87.46,112.64l-1.58-9.99l-5.15,0.82l1.58,9.99c2.79,17.74-9.3,34.38-27.03,37.21
		c-5.71,0.91-11.09-2.99-11.99-8.71c-0.29-1.88-0.08-3.79,0.63-5.56l0.2-0.49c0.54-1.33-0.11-2.85-1.44-3.39
		c-0.89-0.36-1.91-0.2-2.65,0.42l-0.41,0.34c-4.43,3.71-11.05,3.14-14.77-1.3c-1.22-1.46-2.03-3.22-2.32-5.09
		c-2.81-17.74,9.3-34.4,27.03-37.21l0,0l7.39-1.17l-0.82-5.15l-7.39,1.17c-20.58,3.26-34.63,22.59-31.37,43.17l0,0
		c1.36,8.57,9.4,14.41,17.97,13.05c0.88-0.14,1.74-0.36,2.59-0.64c-0.12,8.67,6.83,15.8,15.51,15.91c0.05,0,0.11,0,0.16,0
		c0.84,0,1.66-0.06,2.49-0.2C76.66,152.53,90.69,133.22,87.46,112.64z"/>
	
		<linearGradient id="SVGID_4_" gradientUnits="userSpaceOnUse" x1="83.3764" y1="41.9654" x2="143.0821" y2="41.9654" gradientTransform="matrix(1 0 0 -1 0 161.8425)">
		<stop  offset="0" style="stop-color:#DD3095"/>
		<stop  offset="1" style="stop-color:#7A17D9"/>
	</linearGradient>
	<path class="st3" d="M111.25,84.51l-4.77-0.76l-0.82,5.15l4.77,0.76c17.74,2.81,29.84,19.47,27.03,37.21l0,0
		c-0.91,5.71-6.27,9.62-11.99,8.71c-1.88-0.29-3.63-1.1-5.09-2.32l-0.41-0.34c-1.1-0.92-2.75-0.78-3.67,0.32
		c-0.62,0.74-0.78,1.76-0.42,2.65l0.2,0.49c2.17,5.37-0.44,11.47-5.8,13.64c-1.76,0.71-3.68,0.92-5.56,0.63
		c-6.68-1.04-12.87-4.15-17.69-8.9l-3.65,3.72c5.59,5.51,12.77,9.12,20.52,10.33c0.83,0.13,1.65,0.2,2.49,0.2
		c8.67-0.03,15.69-7.07,15.67-15.76c0-0.05,0-0.11,0-0.16c8.21,2.79,17.13-1.61,19.92-9.82c0.28-0.84,0.5-1.71,0.64-2.59
		C145.88,107.1,131.84,87.77,111.25,84.51L111.25,84.51z"/>
	
		<linearGradient id="SVGID_5_" gradientUnits="userSpaceOnUse" x1="118.6228" y1="96.2643" x2="159.1161" y2="96.2643" gradientTransform="matrix(1 0 0 -1 0 161.8425)">
		<stop  offset="0" style="stop-color:#DD3095"/>
		<stop  offset="1" style="stop-color:#7A17D9"/>
	</linearGradient>
	<path class="st4" d="M158.34,70.24c-1.57-4.85-5.4-8.64-10.28-10.15c5.19-6.95,3.76-16.79-3.18-21.98c-0.71-0.53-1.48-1-2.27-1.4
		c-7.39-3.79-15.83-5.02-23.99-3.48l0.95,5.13c7.03-1.32,14.3-0.27,20.67,3c5.15,2.63,7.21,8.94,4.58,14.1
		c-0.86,1.69-2.17,3.12-3.78,4.12l-0.44,0.28c-1.22,0.76-1.59,2.37-0.83,3.59c0.51,0.82,1.43,1.29,2.39,1.22l0.52-0.04
		c5.78-0.4,10.78,3.95,11.18,9.73c0.13,1.89-0.26,3.79-1.12,5.48c-3.07,6.05-7.96,10.99-14,14.1l2.4,4.63
		c7-3.62,12.68-9.34,16.25-16.37C159.3,78.5,159.64,74.19,158.34,70.24z"/>
	
		<linearGradient id="SVGID_6_" gradientUnits="userSpaceOnUse" x1="38.2906" y1="84.8581" x2="124.324" y2="84.8581" gradientTransform="matrix(1 0 0 -1 0 161.8425)">
		<stop  offset="0" style="stop-color:#DD3095"/>
		<stop  offset="1" style="stop-color:#7A17D9"/>
	</linearGradient>
	<path class="st5" d="M46.1,79.6c1.53,0,3.02-0.44,4.29-1.29c8.08,4.2,17.04,6.43,26.14,6.5l-0.41,1.43
		c-1.74,6.02-5.57,11.21-10.82,14.64c-2.65-3.41-7.55-4.03-10.97-1.38c-3.41,2.65-4.03,7.55-1.38,10.97
		c2.65,3.41,7.55,4.03,10.97,1.38c1.81-1.41,2.92-3.55,3.01-5.85c6.38-3.79,11.22-9.7,13.68-16.7l1.64,3.27
		c3.21,6.47,9.21,11.11,16.27,12.59c1.16,4.16,5.47,6.59,9.63,5.44c4.16-1.16,6.59-5.47,5.44-9.63c-1.16-4.16-5.47-6.59-9.63-5.44
		c-2.26,0.63-4.11,2.23-5.06,4.37c-5.22-1.31-9.6-4.83-11.99-9.66l-2.71-5.42h4.5c8.84,0.03,17.42-3.04,24.24-8.67
		c3.86,1.96,8.57,0.42,10.52-3.43c1.96-3.86,0.42-8.57-3.43-10.52c-3.85-1.96-8.57-0.42-10.52,3.43c-1.07,2.11-1.13,4.58-0.17,6.73
		c-5.85,4.71-13.14,7.27-20.64,7.25h-4.95l1.92-5.13c2.74-7.23,2.14-15.31-1.63-22.07c2.26-3.69,1.1-8.5-2.58-10.76
		c-3.69-2.26-8.5-1.1-10.76,2.58c-2.26,3.69-1.1,8.5,2.58,10.76c1.99,1.22,4.42,1.48,6.62,0.74c2.65,5.27,2.98,11.4,0.89,16.92
		L78.2,79.6h-1.24c-8.11,0-16.11-1.89-23.36-5.52c1.27-4.13-1.05-8.5-5.17-9.78c-4.12-1.27-8.5,1.05-9.78,5.17
		c-1.27,4.13,1.05,8.5,5.17,9.78C44.55,79.48,45.33,79.6,46.1,79.6z M59.14,108.27c-1.44,0-2.61-1.16-2.61-2.6s1.16-2.61,2.6-2.61
		c0.72,0,1.4,0.29,1.9,0.82l0.71,1.79C61.75,107.1,60.58,108.27,59.14,108.27z M106.07,100.45c1.44,0,2.6,1.16,2.6,2.6
		s-1.16,2.6-2.6,2.6c-1.44,0-2.6-1.16-2.6-2.6S104.63,100.45,106.07,100.45z M116.49,66.56c1.44,0,2.6,1.16,2.6,2.6
		s-1.16,2.6-2.6,2.6s-2.6-1.16-2.6-2.6C113.89,67.73,115.05,66.57,116.49,66.56z M74.78,48.31c0-1.44,1.16-2.6,2.6-2.6
		S80,46.87,80,48.31s-1.16,2.6-2.6,2.6C75.95,50.92,74.78,49.75,74.78,48.31z M46.1,69.17c1.44,0,2.6,1.16,2.6,2.6
		s-1.16,2.6-2.6,2.6s-2.6-1.16-2.6-2.6C43.5,70.34,44.67,69.17,46.1,69.17z"/>
</g>
</svg>
